HIERARCHY
ROOT Hips
{
	OFFSET	0	0	0
	CHANNELS 6  Xposition Yposition Zposition Xrotation Yrotation Zrotation
	JOINT Spine
	{
		OFFSET	0	3.33796	0.672814
		CHANNELS 3  Xrotation Yrotation Zrotation
		JOINT Spine1
		{
			OFFSET	0	5.7377	-1.02459
			CHANNELS 3  Xrotation Yrotation Zrotation
			JOINT Spine2
			{
				OFFSET	0	4.34938	0.466188
				CHANNELS 3  Xrotation Yrotation Zrotation
				JOINT Spine3
				{
					OFFSET	0	5.20492	1.54713
					CHANNELS 3  Xrotation Yrotation Zrotation
					JOINT Spine4
					{
						OFFSET	0	7.70492	-0.788934
						CHANNELS 3  Xrotation Yrotation Zrotation
						JOINT Neck
						{
							OFFSET	0	3.67828	-2.57684
							CHANNELS 3  Xrotation Yrotation Zrotation
							JOINT Head
							{
								OFFSET	0	4.41598	-1.32172
								CHANNELS 3  Xrotation Yrotation Zrotation
								End Site
								{
									OFFSET	0	9.21106	-0.445697
								}
							}
						}
					}
					JOINT LeftShoulder
					{
						OFFSET	-2.21311	9.36475	-4.41598
						CHANNELS 3  Xrotation Yrotation Zrotation
						JOINT LeftArm
						{
							OFFSET	-4.85376	-1.32172	1.69571
							CHANNELS 3  Xrotation Yrotation Zrotation
							JOINT LeftForeArm
							{
								OFFSET	-15.4011	-0.70293	1.09931
								CHANNELS 3  Xrotation Yrotation Zrotation
								JOINT LeftHand
								{
									OFFSET	-12.5503	-0.867294	0.895825
									CHANNELS 3  Xrotation Yrotation Zrotation
									End Site
									{
										OFFSET	-4.58023	-0.316519	0.32691
									}
								}
							}
						}
					}
					JOINT RightShoulder
					{
						OFFSET	2.21311	9.36475	-4.41598
						CHANNELS 3  Xrotation Yrotation Zrotation
						JOINT RightArm
						{
							OFFSET	4.85376	-1.32172	1.69571
							CHANNELS 3  Xrotation Yrotation Zrotation
							JOINT RightForeArm
							{
								OFFSET	15.4011	-0.70293	1.09931
								CHANNELS 3  Xrotation Yrotation Zrotation
								JOINT RightHand
								{
									OFFSET	12.5503	-0.867294	0.895825
									CHANNELS 3  Xrotation Yrotation Zrotation
									End Site
									{
										OFFSET	4.58023	-0.316519	0.32691
									}
								}
							}
						}
					}
				}
			}
		}
	}
	JOINT LeftUpLeg
	{
		OFFSET	-4.52345	-1.66898	-0.336407
		CHANNELS 3  Xrotation Yrotation Zrotation
		JOINT LeftLeg
		{
			OFFSET	-1.07058	-20.9775	-0.327925
			CHANNELS 3  Xrotation Yrotation Zrotation
			JOINT LeftFoot
			{
				OFFSET	-1.04647	-19.2898	1.65892
				CHANNELS 3  Xrotation Yrotation Zrotation
				JOINT LeftToeBase
				{
					OFFSET	0	-2.41787	-6.42188
					CHANNELS 3  Xrotation Yrotation Zrotation
					End Site
					{
						OFFSET	0	-0.967151	-3.8686
					}
				}
			}
		}
	}
	JOINT RightUpLeg
	{
		OFFSET	4.52345	-1.66898	-0.336407
		CHANNELS 3  Xrotation Yrotation Zrotation
		JOINT RightLeg
		{
			OFFSET	1.07058	-20.9775	-0.327925
			CHANNELS 3  Xrotation Yrotation Zrotation
			JOINT RightFoot
			{
				OFFSET	1.04647	-19.2898	1.65892
				CHANNELS 3  Xrotation Yrotation Zrotation
				JOINT RightToeBase
				{
					OFFSET	0	-2.41787	-6.42188
					CHANNELS 3  Xrotation Yrotation Zrotation
					End Site
					{
						OFFSET	0	-0.967151	-3.8686
					}
				}
			}
		}
	}
}
MOTION
Frames: 20
Frame Time: 0.033334
 0 16.3291 4.99256 -0 0 -0 -0 0 -0 -0 0 -0 -0 0 -0 -0 0 -0 -0 0 -0 -0 0 -0 -0 0 -0 -0 0 -0 -0 0 -0 -0 0 -0 -0 0 -0 -0 0 -0 -0 0 -0 -0 0 -0 -0 0 -0 -0 0 -0 -0 0 -0 -0 0 -0 -0 0 -0 -0 0 -0 -0 0 -0 -0 0 -0 -0 0 -0
 -3.95788 45.723 6.27266 55.6159 -59.1283 53.4034 0.000101804 0.00766013 -0.761423 167.6 179.985 178.731 166.774 179.954 178.731 169.253 179.992 179.239 1.65401 -0.00732591 -0.253702 17.3312 -12.3536 1.11297 5.21892 -18.2005 -0.508467 169.685 174.625 160.531 39.1074 -50.8861 90.3115 90.8281 -63.9779 90.8854 -0 -70.0368 -23.3689 169.53 -155.852 -165.406 36.9743 58.6365 -90.133 130.288 69.6914 -131.909 -0 19.3572 -17.3487 148.818 -132.762 -170.265 11.4943 7.74269 -6.77234 170.058 -179.932 -170.989 28.6497 0 0 154.154 147.816 166.299 179.825 -170.036 -179.106 176.655 -179.989 170.114 28.6483 0 0
 -3.91844 45.7158 6.34228 56.4748 -59.456 54.3952 4.05489e-05 0.00303282 -0.766001 167.57 179.994 178.723 166.761 179.982 178.723 169.287 179.997 179.234 1.51792 -0.00676375 -0.255244 17.0814 -12.9162 1.47828 5.14761 -19.5841 -0.445892 169.766 173.429 160.956 39.0486 -51.3237 90.4526 90.5912 -64.4407 90.5508 -0 -70.0251 -23.0419 169.518 -155.926 -165.364 35.4576 58.5922 -89.3132 129.87 69.505 -131.577 -0 19.9334 -16.7315 148.864 -133.021 -170.178 11.492 8.46267 -7.05763 170.447 -179.947 -170.958 28.6497 0 0 154.289 147.638 166.057 179.729 -170.055 -178.89 176.636 179.999 170.165 28.6486 0 0
 -3.9034 45.7041 6.40268 57.165 -59.6859 55.2543 4.59356e-05 0.0034624 -0.760099 167.539 179.993 178.733 166.74 179.979 178.733 169.294 179.997 179.24 1.44177 -0.00637499 -0.253286 17.0049 -13.7421 1.4988 5.12637 -20.7731 -0.499182 169.868 172.497 161.366 38.713 -51.0273 89.7231 88.4386 -64.9923 88.4352 -0 -69.8718 -22.6998 169.354 -155.931 -165.117 33.9627 58.2255 -88.4306 129.28 69.3168 -131.076 -0 20.6608 -16.0794 148.978 -133.226 -170.133 11.5065 9.04773 -7.23724 170.719 -179.939 -170.924 28.6494 0 0 154.611 147.474 165.704 179.649 -170.051 -178.692 176.594 -180 170.211 28.6489 0 0
 -3.91498 45.6801 6.48246 58.0673 -60.0309 56.4696 3.90834e-05 0.00293343 -0.763331 167.495 179.994 178.728 166.7 179.982 178.728 169.279 179.997 179.237 1.39377 -0.00618901 -0.254368 17.0422 -14.6908 1.49354 5.14045 -22.0632 -0.564249 170.061 172.183 161.815 39.7581 -50.1567 89.8086 87.4405 -65.5732 87.3571 -0 -69.8199 -22.29 169.025 -155.813 -164.665 33.0338 56.9686 -86.5964 128.736 69.0089 -130.727 -0 21.4622 -15.2615 149.204 -133.6 -170.042 11.4599 9.61196 -7.45823 171.066 -179.972 -170.908 28.6495 0 0 155.004 147.326 165.336 179.592 -170.049 -178.556 176.638 -179.996 170.252 28.6492 0 0
 -3.8984 45.6663 6.53051 59.0866 -60.3392 57.7401 1.24271e-05 0.000969289 -0.734542 167.452 179.998 178.776 166.665 179.994 178.776 169.276 179.999 179.265 1.32079 -0.00564381 -0.244782 17.0002 -15.6715 1.34407 5.12846 -23.2174 -0.677469 170.068 171.939 161.883 39.9093 -49.3311 89.4561 86.0288 -66.3419 85.8281 -0 -69.8802 -21.6809 168.977 -155.812 -164.593 32.8732 55.1126 -85.6774 127.617 68.9227 -129.774 -0 22.2257 -14.3657 149.362 -133.877 -169.985 11.4295 10.077 -7.55323 171.288 -179.978 -170.889 28.6494 0 0 155.325 147.271 165.02 179.527 -170.047 -178.427 176.615 -179.994 170.285 28.6494 0 0
 -3.98482 45.6637 6.5929 59.6582 -60.4768 58.5811 180 -179.999 179.279 167.377 -179.998 178.799 166.637 -179.993 178.799 169.364 -179.999 179.279 0.97416 -0.00408378 -0.240165 16.1659 -16.5973 0.952823 4.8664 -24.2576 -0.893157 170.064 171.708 161.928 39.504 -48.4654 89.2492 84.7042 -67.3013 84.3325 -0 -70.1683 -20.9058 169.056 -156.02 -164.641 33.4563 53.2767 -85.7058 125.654 69.1195 -127.794 -0 22.898 -13.5783 149.583 -134.109 -170.14 11.4266 10.491 -7.54099 171.408 -179.974 -170.867 28.6492 0 0 155.665 147.367 164.743 179.498 -170.059 -178.373 176.486 179.987 170.307 28.6495 0 0
 -4.05174 45.6512 6.63437 60.2238 -60.6949 59.4589 180 -179.997 179.287 167.305 -179.995 178.811 166.606 -179.984 178.811 169.441 -179.997 179.287 0.658412 -0.00273167 -0.237701 15.4165 -17.7748 0.27785 4.6288 -25.2686 -1.20597 170.071 171.562 161.975 38.8694 -47.6792 89.6632 83.5899 -68.2376 83.0075 -0 -70.4349 -20.1582 169.132 -156.21 -164.69 34.1649 51.3878 -85.8998 123.894 69.2244 -125.976 -0 23.4853 -12.8304 149.782 -134.367 -170.261 11.4241 10.8236 -7.54573 171.572 -179.983 -170.856 28.6493 0 0 156.01 147.439 164.433 179.522 -170.065 -178.265 176.411 179.977 170.333 28.6496 0 0
 -4.11238 45.6375 6.71154 61.3931 -61.1534 60.9455 180 -179.994 179.308 167.208 -179.989 178.847 166.544 -179.967 178.847 169.482 -179.994 179.308 0.380051 -0.00153007 -0.230666 14.804 -18.9364 -0.335252 4.43483 -26.3511 -1.49368 169.886 171.542 161.622 37.5872 -47.4791 90.0235 82.7767 -68.9589 82.0238 -0 -70.5463 -19.6059 169.333 -156.26 -164.976 34.9089 49.2106 -86.4673 121.629 69.3334 -123.603 -0 24.0676 -11.9584 149.938 -134.453 -170.374 11.4208 10.9648 -7.51289 171.748 -179.994 -170.846 28.6492 0 0 156.348 147.564 164.192 179.514 -170.204 -178.183 176.363 179.968 170.354 28.6497 0 0
 -4.20413 45.6216 6.85712 63.3662 -61.9156 63.4277 180 -179.992 179.327 167.107 -179.985 178.878 166.457 -179.954 178.878 169.456 -179.992 179.327 0.249629 -0.000978062 -0.224486 14.6532 -20.1178 -0.774469 4.38719 -27.5365 -1.71137 169.914 171.527 161.679 36.5798 -46.6082 89.7389 80.2423 -69.3757 79.4536 -0 -70.4707 -19.3131 169.345 -156.186 -165.019 35.7611 47.3499 -87.5396 121.296 68.8332 -123.297 -0 24.7047 -11.1231 150.112 -134.223 -170.736 11.4438 11.0347 -7.45465 172.09 179.995 -170.831 28.6494 0 0 156.758 147.676 163.949 179.545 -170.522 -178.096 176.383 179.974 170.372 28.6499 0 0
 -4.28858 45.6053 7.03853 65.7906 -62.6354 66.522 180 -179.992 179.317 167.026 -179.983 178.862 166.37 -179.949 178.862 169.385 -179.992 179.317 0.261635 -0.00103933 -0.227601 14.9293 -21.0817 -0.816018 4.47487 -28.7637 -1.78001 169.749 171.4 161.388 35.3841 -45.9087 89.9106 78.4155 -69.7071 77.5698 -0 -70.3036 -19.0096 169.059 -156.282 -164.555 36.478 45.6612 -87.5737 123.878 67.5279 -126.184 -0 25.5977 -10.4808 149.906 -133.68 -171.521 11.4682 11.1156 -7.29309 172.612 179.964 -170.819 28.6496 0 0 156.998 147.704 163.767 179.456 -170.945 -178.049 176.495 179.981 170.404 28.6491 0 0
 -4.35168 45.5965 7.15467 67.4159 -63.1987 68.6659 180 -179.992 179.343 166.969 -179.985 178.904 166.305 -179.954 178.904 169.322 -179.992 179.343 0.303482 -0.00116073 -0.219136 15.2586 -22.0329 -0.925272 4.58105 -29.8389 -1.86192 169.609 171.254 161.151 33.6716 -45.5981 89.9121 78.8366 -70.1129 77.9986 -0 -70.2518 -18.7165 168.795 -156.988 -163.91 36.449 44.8021 -87.459 125.344 66.5686 -127.827 -0 26.4285 -9.98257 149.702 -133.289 -172.156 11.4553 11.1671 -7.14239 173.007 179.952 -170.955 28.6481 0 0 157.213 147.73 163.578 179.415 -171.278 -177.893 176.577 -179.993 170.439 28.6492 0 0
 -4.43555 45.5962 7.30685 68.6794 -63.7415 70.2527 180 -179.993 179.365 166.911 -179.986 178.942 166.198 -179.958 178.942 169.135 -179.993 179.365 0.629039 -0.00232408 -0.211679 16.4561 -22.7991 -0.600215 4.96713 -30.7655 -1.75816 169.58 170.932 161.174 32.1738 -44.6953 89.5858 79.6592 -70.358 78.9787 -0 -70.1796 -18.5786 168.934 -158.344 -163.667 35.4906 44.7013 -87.0636 125.62 66.1396 -128.006 -0 27.0359 -9.6121 149.607 -133.1 -172.729 11.4344 11.325 -6.99708 173.503 179.958 -171.339 28.6478 0 0 157.567 147.756 163.302 179.405 -171.698 -177.548 176.56 -179.998 170.476 28.649 0 0
 -4.50968 45.588 7.47533 69.8664 -64.2303 71.6666 180 -179.993 179.381 166.868 -179.985 178.969 166.109 -179.955 178.969 168.97 -179.993 179.381 0.93137 -0.00335261 -0.206226 17.5553 -23.0831 0.046012 5.32405 -31.5057 -1.53004 169.589 170.951 161.185 31.4693 -43.9277 89.4773 82.4237 -70.6047 81.9973 -0 -70.1701 -18.4533 169.052 -159.805 -163.379 34.3975 45.1578 -86.5699 125.745 65.8117 -127.997 -0 27.5024 -9.35555 149.565 -133.077 -173.162 11.4058 11.4669 -6.87788 173.954 179.965 -171.693 28.6479 0 0 157.676 147.619 162.747 0.152729 -7.8562 3.52736 176.038 179.995 170.599 28.6489 0 0
 -4.62688 45.5826 7.59524 70.9831 -64.6765 72.9665 180 -179.992 179.397 166.83 -179.983 178.995 166.024 -179.95 178.995 168.803 -179.992 179.397 1.25064 -0.00438919 -0.201049 18.6656 -23.2411 0.647254 5.68724 -31.9976 -1.30137 169.541 171.014 161.078 30.8573 -43.1937 88.9144 84.3864 -70.5069 84.0977 -0 -69.9231 -18.571 169.144 -161.479 -163.001 33.3161 45.9797 -86.26 125.074 65.7979 -127.255 -0 27.8854 -9.1638 149.764 -133.359 -173.442 11.3101 11.6478 -6.76083 174.394 179.985 -172.04 28.648 0 0 157.565 147.382 162.269 1.38543 -7.53345 4.84713 175.404 179.981 170.803 28.6489 0 0
 -4.74167 45.5709 7.70723 71.9473 -65.0176 74.0077 180 -179.991 179.405 166.807 -179.981 179.008 165.948 -179.944 179.008 168.632 -179.991 179.405 1.60481 -0.00555675 -0.198338 19.8153 -23.263 1.15855 6.06268 -32.1467 -1.0872 169.525 170.949 161.063 30.5236 -42.2655 88.4196 85.4623 -70.0992 85.3076 -0 -69.4273 -18.9333 169.207 -163.235 -162.574 32.879 46.7869 -86.0037 124.243 65.8823 -126.414 -0 28.2272 -9.0752 150.054 -133.612 -173.562 11.2415 11.8125 -6.68399 174.789 179.987 -172.402 28.648 0 0 157.547 147.151 161.792 2.4416 -7.13701 6.1532 174.816 179.968 171.005 28.6489 0 0
 -4.76574 45.5555 7.80133 72.3098 -65.1638 74.3996 180 -179.992 179.398 166.796 -179.984 178.996 165.895 -179.952 178.996 168.497 -179.992 179.398 1.8985 -0.00665255 -0.200696 20.7444 -23.2278 1.55825 6.36591 -32.1821 -0.914672 169.53 171.122 161.029 30.0953 -42.0854 87.7409 86.7734 -69.8635 86.6955 -0 -68.9871 -19.0405 169.268 -164.704 -162.249 32.4765 47.7319 -85.8382 123.992 65.8496 -126.166 -0 28.6109 -9.17372 150.251 -133.808 -173.586 11.1485 12.0044 -6.61881 175.065 179.995 -172.719 28.648 0 0 157.564 147.001 161.38 3.31193 -6.82896 7.36856 174.352 179.963 171.177 28.6489 0 0
 -4.76185 45.5377 7.86021 72.3987 -65.233 74.4808 180 -179.995 179.385 166.791 -179.991 178.975 165.853 -179.972 178.975 168.382 -179.995 179.385 2.15814 -0.00772081 -0.20488 21.55 -23.2077 1.84962 6.62759 -32.1466 -0.78371 169.567 171.581 160.992 29.3677 -42.7167 86.8957 89.3742 -69.6706 89.3062 -0 -68.6428 -19.0274 169.33 -165.948 -162.007 31.92 48.6698 -85.0265 124.642 65.491 -126.974 -0 29.2288 -9.43874 150.41 -133.969 -173.572 11.0728 12.1754 -6.55922 175.331 180 -172.986 28.648 0 0 157.546 146.826 161.031 3.95769 -6.43714 8.44641 174.032 179.974 171.329 28.6491 0 0
 -4.70261 45.5225 7.8957 72.1462 -65.2105 74.169 180 -179.999 179.374 166.783 -179.998 178.956 165.809 -179.995 178.956 168.266 -179.999 179.374 2.41235 -0.0087847 -0.208521 22.3196 -23.1461 2.0781 6.87496 -31.9807 -0.673892 169.562 172.428 160.781 29.6333 -43.8296 86.9204 94.8186 -69.2197 95.0769 -0 -68.2939 -19.0695 169.404 -166.353 -162.028 31.8995 48.9 -85.1878 124.961 65.2021 -127.404 -0 29.8593 -9.61417 150.416 -133.908 -173.553 11.0263 12.315 -6.54686 175.566 -179.997 -173.211 28.6481 0 0 157.458 146.505 160.674 4.39426 -6.12975 9.36116 173.772 179.991 171.461 28.6493 0 0
 -4.64851 45.518 7.93564 72.2524 -65.2223 74.2439 2.79717e-07 2.5444e-05 -0.629853 166.782 180 178.95 165.779 180 178.95 168.179 180 179.37 2.61427 -0.00957627 -0.209733 22.907 -23.052 2.22553 7.06152 -31.7517 -0.597923 169.565 172.751 160.711 30.0304 -44.8948 87.0272 100.231 -68.2093 100.912 -0 -67.9006 -19.4393 169.516 -166.032 -162.321 32.2573 48.3431 -85.8789 124.424 65.1149 -127.089 -0 30.4054 -9.5592 150.397 -133.853 -173.541 10.9822 12.4482 -6.55763 175.726 -179.998 -173.401 28.6481 0 0 157.348 146.221 160.42 4.70116 -5.87945 9.96976 173.503 180 171.573 28.6494 0 0
